<mxfile host="app.diagrams.net" modified="2024-07-12T14:52:41.271Z" agent="Mozilla/5.0 (Macintosh; Intel Mac OS X 10_15_7) AppleWebKit/537.36 (KHTML, like Gecko) Chrome/126.0.0.0 Safari/537.36" version="24.6.5" etag="ZRhBStKTzdG0T_SPXfdE" type="github">
  <diagram name="第 1 页" id="KxVAfL_FgB_cvbF8e1Lz">
    <mxGraphModel>
      <root>
        <mxCell id="0" />
        <mxCell id="1" parent="0" />
      </root>
    </mxGraphModel>
  </diagram>
</mxfile>
